<mxfile host="app.diagrams.net" agent="Mozilla/5.0 (Windows NT 10.0; Win64; x64) AppleWebKit/537.36 (KHTML, like Gecko) Chrome/130.0.0.0 Safari/537.36" version="25.0.3">
  <diagram name="Trang-1" id="eKHRc_mbNYJt13cCLRfD">
    <mxGraphModel grid="1" page="1" gridSize="10" guides="1" tooltips="1" connect="1" arrows="1" fold="1" pageScale="1" pageWidth="827" pageHeight="1169" math="0" shadow="0">
      <root>
        <mxCell id="0" />
        <mxCell id="1" parent="0" />
        <mxCell id="EZZ9_1FK0c5U18Pp38Rd-3" value="" style="edgeStyle=orthogonalEdgeStyle;rounded=0;orthogonalLoop=1;jettySize=auto;html=1;" edge="1" parent="1" source="EZZ9_1FK0c5U18Pp38Rd-1" target="EZZ9_1FK0c5U18Pp38Rd-2">
          <mxGeometry relative="1" as="geometry" />
        </mxCell>
        <mxCell id="EZZ9_1FK0c5U18Pp38Rd-1" value="Start" style="ellipse;whiteSpace=wrap;html=1;" vertex="1" parent="1">
          <mxGeometry x="380" y="50" width="120" height="80" as="geometry" />
        </mxCell>
        <mxCell id="EZZ9_1FK0c5U18Pp38Rd-7" value="" style="edgeStyle=orthogonalEdgeStyle;rounded=0;orthogonalLoop=1;jettySize=auto;html=1;" edge="1" parent="1" source="EZZ9_1FK0c5U18Pp38Rd-2" target="EZZ9_1FK0c5U18Pp38Rd-6">
          <mxGeometry relative="1" as="geometry" />
        </mxCell>
        <mxCell id="EZZ9_1FK0c5U18Pp38Rd-2" value="Nhập vào một số nguyên dương n" style="shape=parallelogram;perimeter=parallelogramPerimeter;whiteSpace=wrap;html=1;fixedSize=1;" vertex="1" parent="1">
          <mxGeometry x="380" y="210" width="120" height="60" as="geometry" />
        </mxCell>
        <mxCell id="EZZ9_1FK0c5U18Pp38Rd-23" value="" style="edgeStyle=orthogonalEdgeStyle;rounded=0;orthogonalLoop=1;jettySize=auto;html=1;" edge="1" parent="1" source="EZZ9_1FK0c5U18Pp38Rd-6" target="EZZ9_1FK0c5U18Pp38Rd-22">
          <mxGeometry relative="1" as="geometry" />
        </mxCell>
        <mxCell id="EZZ9_1FK0c5U18Pp38Rd-6" value="Cho i = 2" style="whiteSpace=wrap;html=1;" vertex="1" parent="1">
          <mxGeometry x="-10" y="350" width="120" height="60" as="geometry" />
        </mxCell>
        <mxCell id="EZZ9_1FK0c5U18Pp38Rd-14" style="edgeStyle=orthogonalEdgeStyle;rounded=0;orthogonalLoop=1;jettySize=auto;html=1;entryX=0.5;entryY=0;entryDx=0;entryDy=0;" edge="1" parent="1" source="EZZ9_1FK0c5U18Pp38Rd-8" target="EZZ9_1FK0c5U18Pp38Rd-12">
          <mxGeometry relative="1" as="geometry" />
        </mxCell>
        <mxCell id="EZZ9_1FK0c5U18Pp38Rd-27" style="edgeStyle=orthogonalEdgeStyle;rounded=0;orthogonalLoop=1;jettySize=auto;html=1;entryX=0.5;entryY=1;entryDx=0;entryDy=0;" edge="1" parent="1" source="EZZ9_1FK0c5U18Pp38Rd-8" target="EZZ9_1FK0c5U18Pp38Rd-22">
          <mxGeometry relative="1" as="geometry" />
        </mxCell>
        <mxCell id="EZZ9_1FK0c5U18Pp38Rd-8" value="n%i==0" style="rhombus;whiteSpace=wrap;html=1;" vertex="1" parent="1">
          <mxGeometry x="400" y="500" width="80" height="80" as="geometry" />
        </mxCell>
        <mxCell id="EZZ9_1FK0c5U18Pp38Rd-11" style="edgeStyle=orthogonalEdgeStyle;rounded=0;orthogonalLoop=1;jettySize=auto;html=1;" edge="1" parent="1">
          <mxGeometry relative="1" as="geometry">
            <mxPoint x="440" y="820" as="targetPoint" />
            <mxPoint x="440" y="700" as="sourcePoint" />
          </mxGeometry>
        </mxCell>
        <mxCell id="EZZ9_1FK0c5U18Pp38Rd-12" value="Không phải là số nguyên tố" style="shape=parallelogram;perimeter=parallelogramPerimeter;whiteSpace=wrap;html=1;fixedSize=1;" vertex="1" parent="1">
          <mxGeometry x="380" y="640" width="120" height="60" as="geometry" />
        </mxCell>
        <mxCell id="EZZ9_1FK0c5U18Pp38Rd-13" value="Kết thúc chương trình" style="ellipse;whiteSpace=wrap;html=1;" vertex="1" parent="1">
          <mxGeometry x="380" y="820" width="120" height="80" as="geometry" />
        </mxCell>
        <mxCell id="EZZ9_1FK0c5U18Pp38Rd-15" value="True" style="text;html=1;align=center;verticalAlign=middle;whiteSpace=wrap;rounded=0;" vertex="1" parent="1">
          <mxGeometry x="430" y="560" width="60" height="30" as="geometry" />
        </mxCell>
        <mxCell id="EZZ9_1FK0c5U18Pp38Rd-18" value="" style="edgeStyle=orthogonalEdgeStyle;rounded=0;orthogonalLoop=1;jettySize=auto;html=1;" edge="1" parent="1" source="EZZ9_1FK0c5U18Pp38Rd-16" target="EZZ9_1FK0c5U18Pp38Rd-8">
          <mxGeometry relative="1" as="geometry" />
        </mxCell>
        <mxCell id="EZZ9_1FK0c5U18Pp38Rd-21" value="" style="edgeStyle=orthogonalEdgeStyle;rounded=0;orthogonalLoop=1;jettySize=auto;html=1;" edge="1" parent="1" source="EZZ9_1FK0c5U18Pp38Rd-16" target="EZZ9_1FK0c5U18Pp38Rd-20">
          <mxGeometry relative="1" as="geometry" />
        </mxCell>
        <mxCell id="EZZ9_1FK0c5U18Pp38Rd-16" value="i &amp;lt; sqrt (n)" style="rhombus;whiteSpace=wrap;html=1;" vertex="1" parent="1">
          <mxGeometry x="334" y="340" width="80" height="80" as="geometry" />
        </mxCell>
        <mxCell id="EZZ9_1FK0c5U18Pp38Rd-19" value="True" style="text;html=1;align=center;verticalAlign=middle;whiteSpace=wrap;rounded=0;" vertex="1" parent="1">
          <mxGeometry x="370" y="420" width="60" height="30" as="geometry" />
        </mxCell>
        <mxCell id="EZZ9_1FK0c5U18Pp38Rd-28" style="edgeStyle=orthogonalEdgeStyle;rounded=0;orthogonalLoop=1;jettySize=auto;html=1;entryX=1;entryY=0.5;entryDx=0;entryDy=0;" edge="1" parent="1" source="EZZ9_1FK0c5U18Pp38Rd-20" target="EZZ9_1FK0c5U18Pp38Rd-13">
          <mxGeometry relative="1" as="geometry" />
        </mxCell>
        <mxCell id="EZZ9_1FK0c5U18Pp38Rd-20" value="Là số nguyên tố" style="shape=parallelogram;perimeter=parallelogramPerimeter;whiteSpace=wrap;html=1;fixedSize=1;" vertex="1" parent="1">
          <mxGeometry x="610" y="630" width="120" height="60" as="geometry" />
        </mxCell>
        <mxCell id="EZZ9_1FK0c5U18Pp38Rd-24" value="" style="edgeStyle=orthogonalEdgeStyle;rounded=0;orthogonalLoop=1;jettySize=auto;html=1;" edge="1" parent="1" source="EZZ9_1FK0c5U18Pp38Rd-22" target="EZZ9_1FK0c5U18Pp38Rd-16">
          <mxGeometry relative="1" as="geometry" />
        </mxCell>
        <mxCell id="EZZ9_1FK0c5U18Pp38Rd-22" value="i++" style="whiteSpace=wrap;html=1;" vertex="1" parent="1">
          <mxGeometry x="160" y="350" width="120" height="60" as="geometry" />
        </mxCell>
        <mxCell id="EZZ9_1FK0c5U18Pp38Rd-25" value="False" style="text;html=1;align=center;verticalAlign=middle;whiteSpace=wrap;rounded=0;" vertex="1" parent="1">
          <mxGeometry x="400" y="350" width="60" height="30" as="geometry" />
        </mxCell>
        <mxCell id="EZZ9_1FK0c5U18Pp38Rd-26" value="False" style="text;html=1;align=center;verticalAlign=middle;whiteSpace=wrap;rounded=0;" vertex="1" parent="1">
          <mxGeometry x="344" y="510" width="60" height="30" as="geometry" />
        </mxCell>
      </root>
    </mxGraphModel>
  </diagram>
</mxfile>
